{"title":"House.of.Cards.2013.S03.1080p.BluRay.x264-ROVERS[rartv]","uid":12087021,"size":57105322966,"categoryP":"video","categoryS":"hd___tv_shows","magnet":"?xt=urn:btih:7627c19870980585b2d5fd5e67c86db1182439b9&amp;dn=House.of.Cards.2013.S03.1080p.BluRay.x264-ROVERS%5Brartv%5D&amp;tr=udp%3A%2F%2Ftracker.openbittorrent.com%3A80&amp;tr=udp%3A%2F%2Fopen.demonii.com%3A1337&amp;tr=udp%3A%2F%2Ftracker.coppersurfer.tk%3A6969&amp;tr=udp%3A%2F%2Fexodus.desync.com%3A6969","seeders":0,"leechers":2,"uploader":"vickey1992","files":40,"time":1435934861,"description":"All Season 3 Episodes included :\nHouse.of.Cards.2013.S03E01.1080p.BluRay.x264-ROVERS\nHouse.of.Cards.2013.S03E02.1080p.BluRay.x264-ROVERS\nHouse.of.Cards.2013.S03E03.1080p.BluRay.x264-ROVERS\nHouse.of.Cards.2013.S03E04.1080p.BluRay.x264-ROVERS\nHouse.of.Cards.2013.S03E05.1080p.BluRay.x264-ROVERS\nHouse.of.Cards.2013.S03E06.1080p.BluRay.x264-ROVERS\nHouse.of.Cards.2013.S03E07.1080p.BluRay.x264-ROVERS\nHouse.of.Cards.2013.S03E08.1080p.BluRay.x264-ROVERS\nHouse.of.Cards.2013.S03E09.1080p.BluRay.x264-ROVERS\nHouse.of.Cards.2013.S03E10.1080p.BluRay.x264-ROVERS\nHouse.of.Cards.2013.S03E11.1080p.BluRay.x264-ROVERS\nHouse.of.Cards.2013.S03E12.1080p.BluRay.x264-ROVERS\nHouse.of.Cards.2013.S03E13.1080p.BluRay.x264-ROVERS\n\n\nVideo\nID                                       : 1\nFormat                                   : AVC\nFormat/Info                              : Advanced Video Codec\nFormat profile                           : &lt;a class=&quot;__cf_email__&quot; href=&quot;/cdn-cgi/l/email-protection&quot; data-cfemail=&quot;0f476668674f433b213e&quot;&gt;[email&amp;#160;protected]&lt;/a&gt;&lt;script data-cfhash='f9e31' type=&quot;text/javascript&quot;&gt;\n/* &lt;![CDATA[ */!function(){try{var t=&quot;currentScript&quot;in document?document.currentScript:function(){for(var t=document.getElementsByTagName(&quot;script&quot;),e=t.length;e--;)if(t[e].getAttribute(&quot;data-cfhash&quot;))return t[e]}();if(t&amp;&amp;t.previousSibling){var e,r,n,i,c=t.previousSibling,a=c.getAttribute(&quot;data-cfemail&quot;);if(a){for(e=&quot;&quot;,r=parseInt(a.substr(0,2),16),n=2;a.length-n;n+=2)i=parseInt(a.substr(n,2),16)^r,e+=String.fromCharCode(i);e=document.createTextNode(e),c.parentNode.replaceChild(e,c)}t.parentNode.removeChild(t);}}catch(u){}}()/* ]]&gt; */&lt;/script&gt;\nFormat settings, CABAC                   : Yes\nFormat settings, ReFrames                : 4 frames\nCodec ID                                 : V_MPEG4/ISO/AVC\nDuration                                 : 58mn 27s\nBit rate                                 : 9 154 Kbps\nWidth                                    : 1 920 pixels\nHeight                                   : 960 pixels\nDisplay aspect ratio                     : 2.000\nFrame rate mode                          : Constant\nFrame rate                               : 23.976 fps\nColor space                              : YUV\nChroma subsampling                       : 4:2:0\nBit depth                                : 8 bits\nScan type                                : Progressive\nBits/(Pixel*Frame)                       : 0.207\nStream size                              : 3.66 GiB (84%)\nWriting library                          : x264 core 146 r2538 121396c\nEncoding settings                        : cabac=1 / ref=4 / deblock=1:0:0 / analyse=0x3:0x133 / me=umh / subme=7 / psy=1 / psy_rd=1.00:0.00 / mixed_ref=1 / me_range=16 / chroma_me=1 / trellis=1 / 8x8dct=1 / cqm=0 / deadzone=21,11 / fast_pskip=0 / chroma_qp_offset=-2 / threads=60 / lookahead_threads=7 / sliced_threads=0 / nr=0 / decimate=1 / interlaced=0 / bluray_compat=0 / constrained_intra=0 / bframes=3 / b_pyramid=2 / b_adapt=1 / b_bias=0 / direct=1 / weightb=1 / open_gop=0 / weightp=2 / keyint=250 / keyint_min=23 / scenecut=40 / intra_refresh=0 / rc_lookahead=40 / rc=2pass / mbtree=1 / bitrate=9154 / ratetol=1.0 / qcomp=0.60 / qpmin=0 / qpmax=69 / qpstep=4 / cplxblur=20.0 / qblur=0.5 / ip_ratio=1.40 / aq=1:1.00\nLanguage                                 : English\nDefault                                  : Yes\nForced                                   : No\n\nAudio\nID                                       : 2\nFormat                                   : DTS\nFormat/Info                              : Digital Theater Systems\nMode                                     : 16\nFormat settings, Endianness              : Big\nCodec ID                                 : A_DTS\nDuration                                 : 58mn 27s\nBit rate mode                            : Constant\nBit rate                                 : 1 509 Kbps\nChannel(s)                               : 6 channels\nChannel positions                        : Front: L C R, Side: L R, LFE\nSampling rate                            : 48.0 KHz\nBit depth                                : 24 bits\nCompression mode                         : Lossy\nStream size                              : 631 MiB (14%)\nLanguage                                 : English\nDefault                                  : Yes\nForced                                   : No\n\nMenu\n00:00:00.000                             : en:00:00:00.000\n00:04:48.788                             : en:00:04:48.788\n00:09:00.915                             : en:00:09:00.915\n00:18:58.012                             : en:00:18:58.012\n00:28:37.925                             : en:00:28:37.925\n00:37:26.035                             : en:00:37:26.035\n00:47:43.903                             : en:00:47:43.903\n00:56:09.575                             : en:00:56:09.575","torrent":{"xt":"urn:btih:7627c19870980585b2d5fd5e67c86db1182439b9","amp;dn":"House.of.Cards.2013.S03.1080p.BluRay.x264-ROVERS%5Brartv%5D","amp;tr":["udp%3A%2F%2Ftracker.openbittorrent.com%3A80","udp%3A%2F%2Fopen.demonii.com%3A1337","udp%3A%2F%2Ftracker.coppersurfer.tk%3A6969","udp%3A%2F%2Fexodus.desync.com%3A6969"],"infoHash":"7627c19870980585b2d5fd5e67c86db1182439b9","infoHashBuffer":{"type":"Buffer","data":[118,39,193,152,112,152,5,133,178,213,253,94,103,200,109,177,24,36,57,185]},"announce":[],"urlList":[]}}